<svg xmlns="http://www.w3.org/2000/svg" xmlns:xlink="http://www.w3.org/1999/xlink" contentStyleType="text/css" data-diagram-type="CLASS" height="592px" preserveAspectRatio="none" style="width:502px;height:592px;background:#FFFFFF;" version="1.1" viewBox="0 0 502 592" width="502px" zoomAndPan="magnify"><defs/><g><!--class Asiento--><g class="entity" data-entity="Asiento" data-source-line="29" data-uid="ent0002" id="entity_Asiento"><rect fill="#F1F1F1" height="188.875" rx="2.5" ry="2.5" style="stroke:#181818;stroke-width:0.5;" width="161.8027" x="170.5" y="397"/><ellipse cx="223.8032" cy="413" fill="#ADD1B2" rx="11" ry="11" style="stroke:#181818;stroke-width:1;"/><path d="M226.5688,408.875 Q226.7251,408.6563 226.9126,408.5469 Q227.1001,408.4375 227.3188,408.4375 Q227.6938,408.4375 227.9282,408.7031 Q228.1626,408.9531 228.1626,409.5625 L228.1626,411.0156 Q228.1626,411.625 227.9282,411.8906 Q227.6938,412.1563 227.3188,412.1563 Q226.9751,412.1563 226.772,411.9531 Q226.5688,411.7656 226.4595,411.25 Q226.4126,410.8906 226.2251,410.7031 Q225.897,410.3281 225.2876,410.1094 Q224.6782,409.8906 224.0532,409.8906 Q223.2876,409.8906 222.647,410.2188 Q222.022,410.5469 221.522,411.2969 Q221.0376,412.0469 221.0376,413.0781 L221.0376,414.1719 Q221.0376,415.4063 221.9282,416.2344 Q222.8188,417.0469 224.4126,417.0469 Q225.3501,417.0469 226.0063,416.7969 Q226.397,416.6406 226.8188,416.2031 Q227.0845,415.9375 227.2251,415.8594 Q227.3813,415.7813 227.5845,415.7813 Q227.9126,415.7813 228.1626,416.0469 Q228.4282,416.2969 228.4282,416.6406 Q228.4282,416.9844 228.0845,417.3906 Q227.5845,417.9688 226.7876,418.2969 Q225.7095,418.75 224.4126,418.75 Q222.897,418.75 221.6938,418.125 Q220.7095,417.625 220.022,416.5625 Q219.3345,415.4844 219.3345,414.2031 L219.3345,413.0469 Q219.3345,411.7188 219.9438,410.5781 Q220.5688,409.4219 221.6626,408.8125 Q222.7563,408.1875 223.9907,408.1875 Q224.7251,408.1875 225.3657,408.3594 Q226.022,408.5156 226.5688,408.875 Z " fill="#000000"/><text fill="#000000" font-family="sans-serif" font-size="14" lengthAdjust="spacing" textLength="46.6963" x="244.3032" y="418.7285">Asiento</text><line style="stroke:#181818;stroke-width:0.5;" x1="171.5" x2="331.3027" y1="429" y2="429"/><text fill="#000000" font-family="sans-serif" font-size="14" lengthAdjust="spacing" textLength="90.2686" x="176.5" y="447.5332">-codigo: String</text><text fill="#000000" font-family="sans-serif" font-size="14" lengthAdjust="spacing" textLength="115.9854" x="176.5" y="465.1426">-ocupado: boolean</text><line style="stroke:#181818;stroke-width:0.5;" x1="171.5" x2="331.3027" y1="472.2188" y2="472.2188"/><text fill="#000000" font-family="sans-serif" font-size="14" lengthAdjust="spacing" textLength="149.8027" x="176.5" y="490.752">+Asiento(codigo: String)</text><text fill="#000000" font-family="sans-serif" font-size="14" lengthAdjust="spacing" textLength="125.6787" x="176.5" y="508.3613">+getCodigo(): String</text><text fill="#000000" font-family="sans-serif" font-size="14" lengthAdjust="spacing" textLength="142.0371" x="176.5" y="525.9707">+isOcupado(): boolean</text><text fill="#000000" font-family="sans-serif" font-size="14" lengthAdjust="spacing" textLength="93.7686" x="176.5" y="543.5801">+ocupar(): void</text><text fill="#000000" font-family="sans-serif" font-size="14" lengthAdjust="spacing" textLength="89.8652" x="176.5" y="561.1895">+liberar(): void</text><text fill="#000000" font-family="sans-serif" font-size="14" lengthAdjust="spacing" textLength="141.9961" x="176.5" y="578.7988">+mostrarEstado(): void</text></g><!--class Vuelo--><g class="entity" data-entity="Vuelo" data-source-line="40" data-uid="ent0003" id="entity_Vuelo"><rect fill="#F1F1F1" height="312.1406" rx="2.5" ry="2.5" style="stroke:#181818;stroke-width:0.5;" width="488.6289" x="7" y="7"/><ellipse cx="229.1611" cy="23" fill="#ADD1B2" rx="11" ry="11" style="stroke:#181818;stroke-width:1;"/><path d="M231.9268,18.875 Q232.083,18.6563 232.2705,18.5469 Q232.458,18.4375 232.6768,18.4375 Q233.0518,18.4375 233.2861,18.7031 Q233.5205,18.9531 233.5205,19.5625 L233.5205,21.0156 Q233.5205,21.625 233.2861,21.8906 Q233.0518,22.1563 232.6768,22.1563 Q232.333,22.1563 232.1299,21.9531 Q231.9268,21.7656 231.8174,21.25 Q231.7705,20.8906 231.583,20.7031 Q231.2549,20.3281 230.6455,20.1094 Q230.0361,19.8906 229.4111,19.8906 Q228.6455,19.8906 228.0049,20.2188 Q227.3799,20.5469 226.8799,21.2969 Q226.3955,22.0469 226.3955,23.0781 L226.3955,24.1719 Q226.3955,25.4063 227.2861,26.2344 Q228.1768,27.0469 229.7705,27.0469 Q230.708,27.0469 231.3643,26.7969 Q231.7549,26.6406 232.1768,26.2031 Q232.4424,25.9375 232.583,25.8594 Q232.7393,25.7813 232.9424,25.7813 Q233.2705,25.7813 233.5205,26.0469 Q233.7861,26.2969 233.7861,26.6406 Q233.7861,26.9844 233.4424,27.3906 Q232.9424,27.9688 232.1455,28.2969 Q231.0674,28.75 229.7705,28.75 Q228.2549,28.75 227.0518,28.125 Q226.0674,27.625 225.3799,26.5625 Q224.6924,25.4844 224.6924,24.2031 L224.6924,23.0469 Q224.6924,21.7188 225.3018,20.5781 Q225.9268,19.4219 227.0205,18.8125 Q228.1143,18.1875 229.3486,18.1875 Q230.083,18.1875 230.7236,18.3594 Q231.3799,18.5156 231.9268,18.875 Z " fill="#000000"/><text fill="#000000" font-family="sans-serif" font-size="14" lengthAdjust="spacing" textLength="35.8066" x="249.6611" y="28.7285">Vuelo</text><line style="stroke:#181818;stroke-width:0.5;" x1="8" x2="494.6289" y1="39" y2="39"/><text fill="#000000" font-family="sans-serif" font-size="14" lengthAdjust="spacing" textLength="96.4824" x="13" y="57.5332">-numero: String</text><text fill="#000000" font-family="sans-serif" font-size="14" lengthAdjust="spacing" textLength="87.9307" x="13" y="75.1426">-origen: String</text><text fill="#000000" font-family="sans-serif" font-size="14" lengthAdjust="spacing" textLength="94.1582" x="13" y="92.752">-destino: String</text><text fill="#000000" font-family="sans-serif" font-size="14" lengthAdjust="spacing" textLength="140.0615" x="13" y="110.3613">-capacidadMaxima: int</text><text fill="#000000" font-family="sans-serif" font-size="14" lengthAdjust="spacing" textLength="119.0615" x="13" y="127.9707">-asientos: Asiento[]</text><line style="stroke:#181818;stroke-width:0.5;" x1="8" x2="494.6289" y1="135.0469" y2="135.0469"/><text fill="#000000" font-family="sans-serif" font-size="14" lengthAdjust="spacing" textLength="53.3066" x="13" y="153.5801">+Vuelo()</text><text fill="#000000" font-family="sans-serif" font-size="14" lengthAdjust="spacing" textLength="333.4502" x="13" y="171.1895">+Vuelo(numero: String, origen: String, destino: String)</text><text fill="#000000" font-family="sans-serif" font-size="14" lengthAdjust="spacing" textLength="476.6289" x="13" y="188.7988">+Vuelo(numero: String, origen: String, destino: String, capacidadMaxima: int)</text><text fill="#000000" font-family="sans-serif" font-size="14" lengthAdjust="spacing" textLength="131.1064" x="13" y="206.4082">+getNumero(): String</text><text fill="#000000" font-family="sans-serif" font-size="14" lengthAdjust="spacing" textLength="123.334" x="13" y="224.0176">+getOrigen(): String</text><text fill="#000000" font-family="sans-serif" font-size="14" lengthAdjust="spacing" textLength="128.7822" x="13" y="241.627">+getDestino(): String</text><text fill="#000000" font-family="sans-serif" font-size="14" lengthAdjust="spacing" textLength="121.7617" x="13" y="259.2363">+mostrarInfo(): void</text><text fill="#000000" font-family="sans-serif" font-size="14" lengthAdjust="spacing" textLength="152.1064" x="13" y="276.8457">+mostrarAsientos(): void</text><text fill="#000000" font-family="sans-serif" font-size="14" lengthAdjust="spacing" textLength="242.3955" x="13" y="294.4551">+embarcar(codigoAsiento: String): void</text><text fill="#000000" font-family="sans-serif" font-size="14" lengthAdjust="spacing" textLength="264.9678" x="13" y="312.0645">+desembarcar(codigoAsiento: String): void</text></g><!--reverse link Vuelo to Asiento--><g class="link" data-entity-1="Vuelo" data-entity-2="Asiento" data-source-line="58" data-uid="lnk4" id="link_Vuelo_Asiento"><path codeLine="58" d="M251.5,331.12 C251.5,357.61 251.5,372.39 251.5,396.65" fill="none" id="Vuelo-backto-Asiento" style="stroke:#181818;stroke-width:1;"/><polygon fill="#181818" points="251.5,319.12,247.5,325.12,251.5,331.12,255.5,325.12,251.5,319.12" style="stroke:#181818;stroke-width:1;"/><text fill="#000000" font-family="sans-serif" font-size="13" lengthAdjust="spacing" textLength="49.1499" x="252.5" y="363.4951">contiene</text><text fill="#000000" font-family="sans-serif" font-size="13" lengthAdjust="spacing" textLength="7.23" x="244.345" y="340.5698">1</text><text fill="#000000" font-family="sans-serif" font-size="13" lengthAdjust="spacing" textLength="19.5127" x="231.7998" y="386.2889">1..*</text></g><!--SRC=[fL9DJuGm4BtpAnfEi0iRlNBRg8Szw1usyM8y3Er89a9BscACnlzkjvJL0WSJkG3lpRpvU6DUIVQWeMEy1MFsrcgg1ui7hkI9Ff1T9ObdsDuGIglOPyBSKpAk13MgOYUN8Pi0AZxq81nQAzKYI0zlfzmipia3sw2zyKIMHt9RHkOu2fwPMD9NqcVyJP48O4irwWNQAMCTUcTiKFBSrpJOuu3jprXow50lnjBKe9o10eqbEG_bq0Cd0U8Utgc3Yf6qWO9n2wQQzl7q73hqBMHvz1StKinwAERb_vLShBRzovy7hxVmnp57hxp6t8ur5bImuo1VrBfHOJjcnc9NW-REtV6AGjHb_YZMpVUtS7S5e__fTSesPUdUkzqclLnxvUvSMlUDtm00]--></g></svg>